<svg version="1.1" id="Camada_1" xmlns="http://www.w3.org/2000/svg" x="0" y="0" viewBox="0 0 40 31.6" xml:space="preserve"><style>.st0{fill:none}.st1{fill:#04a8a8}.st2{fill:#ffce43}.st3{fill:#2b9548}</style><path class="st0" d="M30.7 24.5l3.5 3.5c.4.4 1.1.6 1.5.4.6-.3 1-.8 1-1.4V4.8c0-.8-.6-1.4-1.4-1.4H13.1c-.6 0-1.1.3-1.3.8-.1.4-.1 1 .2 1.4l18.1 18.1c.3.2.4.5.6.8zM4.6 3.4c-.2 0-.3 0-.5.1-.5.2-.8.7-.8 1.3V27c0 .8.6 1.4 1.4 1.4h22.2c.8 0 1.2-.6 1.3-.9.1-.3.1-.7 0-1.1L9.9 8l-.3-.3-3.9-3.9c-.3-.3-.7-.4-1.1-.4z"/><path class="st1" d="M28.2 26.4c-.1-.2-.2-.3-.3-.5L9.6 7.7l.3.3 18.3 18.4zM35.3.2H13.1c-1.7 0-3.3.9-4.1 2.4l3 3c-.4-.5-.4-1-.2-1.4.3-.5.8-.8 1.3-.8h22.2c.8 0 1.4.6 1.4 1.4V27c0 .6-.3 1.1-1 1.4-.5.2-1.1.1-1.5-.4l-3.5-3.5c.8 1.2 1 2.8.5 4.2v.1c-.1.1-.1.3-.2.4l1.1 1.1c.9.9 2.1 1.4 3.3 1.4.6 0 1.2-.1 1.7-.4 1.7-.7 2.9-2.4 2.9-4.3V4.8C39.9 2.2 37.9.2 35.3.2z"/><path class="st2" d="M30.7 24.5c-.2-.3-.4-.5-.6-.8L12 5.6c0 .1.1.1.1.2l18.6 18.7zM28.2 27.5c-.2.4-.6.9-1.3.9H4.7c-.8 0-1.4-.6-1.4-1.4V4.8c0-.6.3-1.1.9-1.3.1-.1.3-.1.5-.1.4 0 .8.1 1.1.4l3.9 3.9c-1-1.3-1.3-3-.8-4.6V3c0-.2.1-.2.1-.3L7.9 1.6C6.7.3 4.7-.1 3 .5 1.3 1.2.1 2.9.1 4.8V27c0 2.6 2 4.6 4.6 4.6h22.2c1.7 0 3.2-.9 4-2.4l-2.7-2.7c.2.3.1.7 0 1z"/><path class="st3" d="M31.2 28.6c.5-1.4.3-2.9-.5-4.2L12.1 5.8c0-.1-.1-.1-.1-.2l-3-3c0 .2-.1.2-.1.3V3c-.7 1.6-.3 3.4.7 4.7L27.9 26c.1.1.2.3.3.5l2.7 2.7c.1-.1.1-.3.2-.4l.1-.2zM54.6 1.7h9.7v9.7h-9.7z"/></svg>